<svg xmlns="http://www.w3.org/2000/svg" width="400" height="80"><path fill="#FFF" d="M69.6 3.4c0-1.9-1.5-3.4-3.4-3.4H3.4A3.4 3.4 0 0 0 0 3.4v62.3C0 67.5 1.5 69 3.4 69h62.8c1.9 0 3.4-1.5 3.4-3.3V3.4z"/><path fill="#C83232" d="M62.9 32.5L50.7 16.8c-.2-.2-.3-.8-.1-1l6-12.1c.1-.3.4-.4.7-.1L69.6 16V3.4c0-1.9-1.5-3.4-3.4-3.4H3.4A3.4 3.4 0 0 0 0 3.4v62.3C0 67.5 1.5 69 3.4 69h1.5l7.7-20 .3-.9.1-.2c.4-1 1.2-1 1.4-1A51.5 51.5 0 0 0 34 46a33.6 33.6 0 0 0 21-17.6c.1-.3.4-.4.6 0l5 6.5c.2.3.2.9 0 1.2 0 0-3 7-10 14-7 7.1-18 9.2-18 9.2-.4 0-.8.4-1 .8l-3.7 9h38.4c1.9 0 3.4-1.5 3.4-3.3V20.2l-6 12.2c-.2.3-.5.4-.7 0zM31 35.2a10.6 10.6 0 1 1-20-7 10.6 10.6 0 0 1 20 7z"/><path fill="#231F20" d="M111.8 28.6c-2 0-4.6.8-5.5 3L99 51.8l-7.4-20.2c-.9-2.2-3.5-3-5.5-3-3.3 0-5.8 2.3-5.8 5.5v32.1a2.7 2.7 0 0 0 2.7 2.7h1.7c1.5 0 2.6-1.2 2.6-2.7a26569.7 26569.7 0 0 1 0-26.5l2.8 7.5 4.8 13c.8 1.8 2.2 2.9 4 2.9 1.9 0 3.3-1 4-3l5-13 2.6-7.4v26.6c0 1.4 1.2 2.6 2.7 2.6h1.7a2.7 2.7 0 0 0 2.7-2.7v-32c0-3.3-2.5-5.6-5.8-5.6zM287.9 64l-.1-.2-.2-.5a2.5 2.5 0 0 0-3.1-1.7l-1.5.5c-1 .3-2 .6-3.1.6-2.4 0-3.5-1.3-3.5-4V45.4h8c.6 0 1.3-.2 1.8-.7.4-.5.7-1.1.7-1.8v-1.1c0-1.4-1.1-2.6-2.5-2.6h-8v-4.7c0-1.4-1.1-2.6-2.5-2.6H272a2.5 2.5 0 0 0-2.6 2.6v24.3c0 6.6 3.7 10.5 9.8 10.5a20 20 0 0 0 5.2-.6l.3-.1 1.7-.6c1.3-.4 2-1.8 1.6-3.2l-.2-.6zm14.8-26.4c-7.5 0-12.7 4.8-13.2 12.2-.1 1.6-.2 4.7 0 7 .5 7.5 5.7 12.4 13.5 12.4a23.5 23.5 0 0 0 8-1.3l1.6-.7c1.3-.5 2-2 1.5-3.3l-.5-1.3c-.5-1.3-2-2-3.3-1.5l-1.2.5c-2.4.9-4.4 1.3-6 1.3-4.4 0-7-2.5-7-6.5v-.2h15.4c2.5 0 4-1.5 4-4v-1.6c0-7.7-5.1-13-12.8-13zm-4.8 8a6.4 6.4 0 0 1 4.8-1.8c2 0 3.6.7 4.7 1.8a6 6 0 0 1 1.4 5h-12.6c0-2.2.6-4 1.7-5zm-104.5-8c-7.4 0-12.6 4.8-13.2 12.2v7c.5 7.5 5.8 12.4 13.5 12.4 2.7 0 5.7-.5 7.8-1.3l1.8-.7c1.3-.5 2-2 1.5-3.3l-.5-1.3c-.5-1.3-2-2-3.3-1.5l-1.4.6c-2.2.8-4.2 1.1-5.8 1.1-4.3 0-6.9-2.4-6.9-6.4v-.2h15.3c2.6 0 4-1.5 4-4v-1.6c0-7.8-5-13-12.8-13zm-4.7 8a6.4 6.4 0 0 1 4.7-1.8c2 0 3.6.7 4.7 1.8a6 6 0 0 1 1.5 4.7v.2h-12.7a7 7 0 0 1 1.8-5zm210 19.1l-.5-1.4a2.5 2.5 0 0 0-3.2-1.7l-1.5.5c-1 .3-2 .6-3 .6-2.4 0-3.5-1.3-3.5-4V45.4h8c1.3 0 2.5-1 2.5-2.5v-1.1c0-1.4-1.2-2.6-2.6-2.6h-8v-4.7c0-1.4-1-2.6-2.5-2.6h-1.8a2.5 2.5 0 0 0-2.5 2.6v24.3c0 6.6 3.6 10.5 9.7 10.5a19.8 19.8 0 0 0 5.5-.7l1.7-.6c1.4-.4 2.1-1.8 1.7-3.2zM393 45zm-58.3-6.5l-1.5-.4a23 23 0 0 0-4.7-.5c-6.2 0-9.9 3.7-9.9 9.7v19c0 1.5 1.2 2.6 2.6 2.6h1.8c1.4 0 2.5-1.1 2.5-2.5V48.3c0-2.8 1-4 3.4-4h.2l2.3.2 1.4.4.7.1c1.1 0 2.1-.7 2.5-1.8l.4-1.6a2.5 2.5 0 0 0-1.7-3zM174.2 27.8h-1.8a2.5 2.5 0 0 0-2.6 2.5v36.1c0 1.4 1.2 2.5 2.6 2.5h1.8c1.4 0 2.5-1.1 2.5-2.5v-36c0-1.5-1.1-2.6-2.5-2.6zm60 10.8l-1.9-.8c-1.3-.5-2.8.2-3.3 1.5l-7.3 18.8-7.8-18.9a2.5 2.5 0 0 0-3.3-1.3l-1.9.8a2.5 2.5 0 0 0-1.3 3.3L218 66.2a14.5 14.5 0 0 1-5.6 7.3l-.5.3a2.6 2.6 0 0 0-1 3.5l1 1.4a2.6 2.6 0 0 0 3.4.9l1.7-1h.1c2.1-1.5 5.3-5 7.7-10.7L235 43.7l.7-1.8c.3-.7.3-1.4 0-2-.2-.6-.7-1-1.4-1.3zm117.8-1c-5.7 0-10 1.7-11.9 3.2-1 .7-1.4 1.4-1.4 2.7v22.9c0 1.4 1.2 2.5 2.6 2.5h1.8c1.4 0 2.5-1.1 2.5-2.5V45.6a14 14 0 0 1 6.2-1.3c3.7 0 6 2.2 6 5.9v16.2c0 1.4 1 2.5 2.5 2.5h1.8c1.4 0 2.5-1.1 2.5-2.5V50c0-8-4.5-12.3-12.7-12.3zm20-10.1a3.7 3.7 0 0 0-3.8 3.8 3.8 3.8 0 1 0 7.6 0c0-2.2-1.6-3.8-3.7-3.8zm1 10.5h-1.8a2.5 2.5 0 0 0-2.6 2.5v25.9c0 1.4 1.2 2.5 2.6 2.5h1.8c1.4 0 2.5-1.1 2.5-2.5V40.5c0-1.4-1.1-2.5-2.5-2.5zm-207.3.5l-1.6-.4h-.3a23 23 0 0 0-4.3-.5c-6.2 0-9.9 3.6-9.9 9.7v19c0 1.5 1.2 2.6 2.6 2.6h1.7c1.4 0 2.6-1.1 2.6-2.5V48.3c0-2.8 1-4 3.4-4h.2l2.2.2 1.5.4.7.1c1.1 0 2.1-.7 2.4-1.8l.2-.4.1-.6.2-.6a2.5 2.5 0 0 0-1.7-3zm-31.7-.9c-3 0-6.2.8-7.8 1.4l-1.7.5a2.5 2.5 0 0 0-1.6 3.2l.5 1.4c.4 1.3 2 2 3.2 1.5l1.7-.5.2-.1c2-.7 3.7-1 5.2-1 4.1 0 5.7 1.4 5.7 5v1.2a24 24 0 0 0-6.6-.9c-8.7 0-11.8 5.3-11.8 9.8 0 6.2 4.6 10.1 12 10.1 7 0 11.3-2.9 11.8-3.2 1-.7 1.3-1.5 1.3-2.6V49c0-7.4-4.2-11.3-12-11.3zm-.5 25.5c-2.6 0-5.7-.8-5.7-4.2 0-2.8 2.8-3.7 5.4-3.7 2.3 0 4 .3 6.2.8v5.6c-.6.4-2.5 1.5-6 1.5zM264 28.5h-19.8c-3 0-5 2-5 5v30c0 3.1 2 5.2 5 5.2h19.7c1.4 0 2.5-1.2 2.5-2.6v-1.8c0-1.4-1.1-2.5-2.5-2.5H246V52h17c1.4 0 2.6-1.2 2.6-2.7v-1.2c0-1.4-1.2-2.6-2.7-2.6H246V35.4h18c1.4 0 2.5-1.1 2.5-2.5V31c0-1.4-1.1-2.6-2.5-2.6zm-1 .5z"/></svg>