<svg xmlns="http://www.w3.org/2000/svg" width="200" height="122" fill-rule="evenodd" stroke-linejoin="round" stroke-miterlimit="1.4" clip-rule="evenodd" viewBox="0 0 1884 1146"><path fill="#bb3118" fill-rule="nonzero" d="M8.2 364.1C3.7 370 0 375.8 0 381.6c0 5.8 9.3 17.5 23.3 19.8 14 2.4 33.6 3.5 41.4-.3 6.1-3 12.3-9 18.2-17.2 5.8-8.2 19-27.2 25.6-33.5 9.7-9.5 96.6-93.7 103.6-103 7-9.4 15.5-17.6 22.5-17.6a17 17 0 0 1 14 8.2c2.4 3.5 11 14.3 14.3 18 4.8 5.4 17.5 18 22 22.9 10.9 11.4 55 78 61.8 86.4 6.8 8.4 18.6 22.1 24.5 30.3 7 9.8 20 22 25.7 25.7 7.6 4.8 17.7 9.9 27.3 8.6a41 41 0 0 0 27-15.6c5.9-8.3 27.8-38.1 35.2-49 6.8-9.8 24.9-29.2 40-56 15.2-27 38.6-64.2 52.6-80.6 14-16.3 37.4-46.2 49-63.7 11.7-17.6 21.6-29.7 28.6-39 8.5-11.1 15.1-14 22.8-17.5 9.3-4.2 22.2-2.2 28 2.6 7.4 6.4 28.3 36.8 42.3 62.4 14 25.7 58.2 83.3 66.2 94 11.1 14.8 39.4 48.7 49.9 62.8 10.5 14 60.4 80 71.7 91.8 10.8 11.2 31.8 19 52.8 21.3 21 2.2 58-.2 91-18.3 33.1-18.1 140.9-81 173.4-98 25.8-13.4 120-69.3 160.8-91.1 13-7 46-25 53.7-28.5a1045 1045 0 0 1 83.1-34.2c41.1-14.2 91.7-19.7 134-24 23.4-2.2 72.2-4.8 97.8-10 7.5-1.5 25.6-8.6 25.6-20.6 0-30-117.2-26.8-146.5-24.8a974 974 0 0 0-114.3 15.1c-31 6.5-91.5 23-138 43.7-41.7 18.7-134 69-149.2 76-15.2 7-141 70-165.6 80.6-24.5 10.5-62.8 32.2-97 27.8-23.1-3-35.9-6.6-48.4-17.8a123 123 0 0 1-23.9-27.6c-10.8-16-65.7-87.8-76.3-106-7-12.2-76.6-125.9-91-145.2-9.4-12.4-34.1-33.6-49.1-38C665-10.8 636 33 627.2 42.5c-11.8 12.6-35 51-46.8 67.2a2281.3 2281.3 0 0 1-57 72.4c-14.9 18-67.8 96.9-77.4 108.4-7.4 9-16 17.4-25.4 17-8.1-.2-27.2-18-34.3-28.6a447 447 0 0 0-39.3-50.7c-12.1-13.2-65.1-67.4-81.4-80.1-16.4-13-27.7-9.5-42.2-3.5-14.4 6-40.1 32.8-50.7 45.6C162.2 203 65.4 298.7 52.5 312.7c-12.8 14-39.9 45.5-44.3 51.4zm274.2 252.8c-4.7-72.9-50.2-92-129.8-92H0v357.9h85.8V737.4h53.8c30 .3 38.8 29.2 47 47.5l33.9 81.7s5.5 16.2 18.6 16.2l87.6-.5c-21.2-16.6-36.8-67.5-45.8-88.9-20.7-49-33.5-87.8-57.9-91.3 41.9-16.2 62.3-39 59.4-85.2zm-80 11.2c0 31.4-27 48.4-53.5 48.3H84.2v-89.7H153c35.3-.1 49.6 9.6 49.6 41.4zM1418.8 655v1.5c17.9-22.4 34-35.3 73-35.3 25.6 0 68.4 10.8 84 54.4a129 129 0 0 1 7.5 39.4v167.7h-73.2v-155c-.5-27.6-15.2-44.5-44.8-44.7-17.2 0-41.6 11.9-41.8 44.7v155h-77v-253h72.3V655zm-912.1 66.2c0-28.2-20.4-46.8-52.5-46.8-26 0-51.3 18.6-52.3 46.8h104.8zm-103 55a54.8 54.8 0 0 0 56.1 55.1c24-.2 33.5-6.2 49.3-25.2h72c-14.4 59.9-64.3 83.8-126.7 83.4-68.4-.4-128.9-49.8-128.9-136 0-77.4 47.3-136.9 129-136.9 50 0 89.2 17.2 111.6 62.4a170 170 0 0 1 16.3 47.2c2.4 14 3.9 17 2.6 50H403.6zm351.5 55c43-.2 55.4-41.9 55.4-77.3s-11.8-75.5-53.4-75.6c-44.8 0-57.4 36.1-57.4 75.6 0 39.5 16.1 77.4 55.4 77.3zm56 24.2c-17.7 30.2-44.3 35-77.6 35-75.4 0-110.8-70.3-110.8-136.5 0-69.3 40.5-136.4 120.5-136.4 26.7 0 48.5 7.5 62.8 29l.2-118.2h75v354.4h-70.1v-27.3zM938 529.1h74.7v354.4h-74.6zM1757 832c43.1-.1 55.5-41.7 55.5-77.2 0-35.4-11.8-75.5-53.3-75.6-44.9 0-57.5 36.1-57.5 75.6 0 39.6 16.1 77.5 55.4 77.3zm56.1 24.3c-17.6 30.3-44.3 35-77.6 35-75.4 0-110.8-70.3-110.8-136.5 0-69.2 40.5-136.4 120.5-136.4 26.7 0 48.5 7.5 62.8 29.1l.2-118.3h75.1v354.5H1813v-27.4zm-587.3 9.2c.3 3.4 3.8 13.1 6.6 18.2h73.3c-2.9-4.3-8-13-8.5-25.9V717.3c0-77.5-59.4-96.5-111.2-96.5-27.7 0-56.6 3.6-77.6 16-20.5 11.8-38.7 39.7-39.2 72h66.5c.2-11.7 9.4-31.2 48-31.3 27.2 0 38.5 12.1 38.5 23 0 0 2.3 17.2-28.2 19.4 0 0-63 10.6-75.5 15.2-51.9 17.3-60.8 51.5-60.7 74 .2 53.3 41.4 83.2 89.6 83.2 35 0 56-4.7 78.3-26.8h.1zm-.5-72.4c0 14.6-13.4 43.3-56.8 43 0 0-39.4 2.2-39.4-28.8 0 0-2.2-21.5 37.7-29.9 0 0 42.9-9 58.7-14.8l-.2 30.5z"/><path fill="#58595b" fill-rule="nonzero" d="M89.1 1046.7l-38 45.3v52.6h-7.6V1092l-38-45.3h9.1l32.7 38.7 32.6-38.7H89zm63.3 92.1c12.2 0 22.5-4.1 31-12.5a41.6 41.6 0 0 0 12.5-30.7c0-12.1-4.2-22.3-12.6-30.7a42.1 42.1 0 0 0-30.9-12.5 42.7 42.7 0 0 0-31 12.5 41.4 41.4 0 0 0-12.8 30.7c0 12.2 4.3 22.4 12.8 30.7a42.7 42.7 0 0 0 31 12.5zm-.2-93.4a51 51 0 0 1 51.9 50.2 51 51 0 0 1-52 50.2 50.7 50.7 0 0 1-51.7-50.2 50.7 50.7 0 0 1 51.7-50.3zm155.2 1.3h7.5v53.4c0 14.6-3.8 25.9-11.4 33.8a39 39 0 0 1-29.6 12c-12 0-21.9-4-29.5-11.8a44.3 44.3 0 0 1-11.4-32.3v-55.1h7.6v54.8c0 11.7 3.1 20.9 9.3 27.4a31.4 31.4 0 0 0 24 10c10 0 18-3.4 24.2-10a40 40 0 0 0 9.3-28.4v-53.8zm49.6-.3v11c0 8.4-3.2 15-9.4 19.7v-5c2-2.8 3-6.8 3-11.8h-3v-14h9.3zm41 6.6v38.3h16.3c8.3 0 14.6-1.7 19-5 4.3-3.3 6.5-8 6.5-14.2 0-6-2.2-10.7-6.6-14a31.3 31.3 0 0 0-19.2-5.1h-16zm-7.5-6.3h25c10.6 0 18.6 2.2 24.2 6.8a22.6 22.6 0 0 1 8.3 18.5c0 11.3-6.2 19.2-18.6 23.8 3.2 1.5 7.5 6.5 13 15l22.2 33.8h-9l-17-26.9a65.6 65.6 0 0 0-13.4-16.8 24.3 24.3 0 0 0-14-3.3H398v47h-7.5v-98zm150 0v6.3h-45.8v39.1h44.6v6.4h-44.6v39.8h47v6.3H487v-98h53.4zm79.4 51.7v39.9H640c8.4 0 14.7-1.8 19-5.4 4.4-3.6 6.6-8.4 6.6-14.5 0-13.3-9.6-20-28.9-20h-17zm0-45.4v39h10.5c17.8 0 26.7-6.5 26.7-19.5s-9-19.5-27-19.5h-10.2zm-7.6-6.3h20.4c10.7 0 18.8 2.2 24.3 6.7a22.6 22.6 0 0 1 8.3 18.6c0 9.4-4.7 16.7-14.1 21.8 15 3.2 22.6 11.5 22.6 24.8 0 8-3 14.2-8.8 19-6 4.6-14 7-24 7h-28.7v-98zm143.5 0v6.3H710v39.1h44.6v6.4H710v39.8h47v6.3h-54.6v-98h53.4zm102.3 0v6.3h-36.7v91.6h-7.6V1053H777v-6.3h81.1zm99.7 0v6.3H921v91.6h-7.7V1053h-36.7v-6.3h81zm77.9 0v6.3h-45.9v39.1h44.7v6.4h-44.7v39.8h47v6.3h-54.5v-98h53.4zm35.8 6.3v38.3h16.3c8.3 0 14.6-1.7 19-5 4.3-3.3 6.5-8 6.5-14.2 0-6-2.2-10.7-6.6-14a31.3 31.3 0 0 0-19.2-5.1h-16zm-7.5-6.3h25c10.6 0 18.6 2.2 24.2 6.8a22.6 22.6 0 0 1 8.3 18.5c0 11.3-6.2 19.2-18.6 23.8 3.2 1.5 7.5 6.5 13 15l22.2 33.8h-9l-17-26.9a65.6 65.6 0 0 0-13.4-16.8 24.3 24.3 0 0 0-14-3.3h-13.2v47h-7.5v-98zm218.4 6.9v8.3a74 74 0 0 0-34.9-9.5 42.3 42.3 0 0 0-42.8 43.4c0 12.5 4.2 22.8 12.4 30.9a43 43 0 0 0 31.5 12.1 75 75 0 0 0 34.8-10v7.8a73.7 73.7 0 0 1-34.7 9.2 51.2 51.2 0 0 1-37.2-14.3 47.5 47.5 0 0 1-15-35.7c0-14.3 5.1-26.3 15.3-36a50.8 50.8 0 0 1 36.2-14.4c11 0 22.5 2.7 34.4 8.2zm72.8 85.2a42 42 0 0 0 30.9-12.5 41.6 41.6 0 0 0 12.5-30.7c0-12.1-4.1-22.3-12.5-30.7a42 42 0 0 0-31-12.5 42.7 42.7 0 0 0-31 12.5 41.5 41.5 0 0 0-12.7 30.7c0 12.2 4.2 22.4 12.7 30.7a42.7 42.7 0 0 0 31 12.5zm-.3-93.4a51 51 0 0 1 52 50.2c0 14-5 25.9-15.2 35.6a51 51 0 0 1-36.8 14.6 50.7 50.7 0 0 1-51.7-50.2 50.7 50.7 0 0 1 51.7-50.3zm152.1 1.3l-41 98.9h-2.3l-41.2-99h7.7l34.7 82.9 34.4-82.8h7.7zm77.8 0v6.3h-45.9v39.1h44.7v6.4h-44.7v39.8h47v6.3h-54.5v-98h53.4zm35.9 6.3v38.3h16.2c8.3 0 14.6-1.7 19-5 4.3-3.3 6.5-8 6.5-14.2 0-6-2.2-10.7-6.6-14a31.1 31.1 0 0 0-19.2-5.1h-16zm-7.6-6.3h25c10.6 0 18.6 2.2 24.2 6.8a22.6 22.6 0 0 1 8.3 18.5c0 11.3-6.2 19.2-18.6 23.8 3.2 1.5 7.6 6.5 13 15l22.2 33.8h-9l-17-26.9a65.6 65.6 0 0 0-13.4-16.8 24.3 24.3 0 0 0-13.9-3.3h-13.2v47h-7.6v-98zm150 0v6.3h-45.8v39.1h44.6v6.4h-44.6v39.8h47v6.3h-54.6v-98h53.4zm40.1 7.5v85.3h27.6c12.7 0 23.2-3.9 31.7-11.6a40.1 40.1 0 0 0 12.6-31c0-12.6-4.2-22.8-12.5-30.8a44.8 44.8 0 0 0-32.3-11.9h-27.1zm-7.6-6.3h34.3c17.3 0 30.6 4.6 39.7 13.7a47.7 47.7 0 0 1 13.7 35.3 48 48 0 0 1-13.6 35c-9 9.3-21.8 14-38.5 14h-35.6v-98z"/></svg>
