<svg xmlns="http://www.w3.org/2000/svg" viewBox="314 536 654 164" preserveAspectRatio="xMinYMax meet" class="rooftrain"><path class="roof" d="M400 700h-18l-13.3-51.5H337l-5.4 51.5h-17.1L327 580h51.4q6.7 0 12.3 2.4 5.6 2.4 9.8 6.5 4.2 4.1 6.5 9.8 2.4 5.6 2.4 12 0 5.4-1.8 10.6-1.7 5.2-4.9 9.8-3.1 4.5-7.4 8.2-4.3 3.7-9.4 6.1l14.2 54.6zm-27-68.5q3.8 0 7.3-1.6 3.4-1.6 6-4.2 2.6-2.7 4.1-6.1 1.6-3.5 1.6-7.2 0-3.3-1.3-6-1.1-2.9-3.3-4.9-2-2-4.8-3.2-2.8-1.2-6-1.2h-34.3l-3.6 34.4h34.4zm34.9 34.1l5.4-51.3q.7-7 4-13.2 3.4-6.3 8.6-11 5.2-4.7 11.7-7.4 6.5-2.7 13.6-2.7h17.1q6.6 0 12.2 2.4t9.9 6.5q4.2 4.1 6.5 9.8 2.3 5.6 2.3 12v1.8l-.3 1.9-5.4 51.3q-.8 7-4 13.2-3.4 6.3-8.5 10.9-5.2 4.7-11.7 7.4-6.6 2.8-13.6 2.8h-17.1q-6.6 0-12.2-2.3-5.6-2.4-9.8-6.6-4.3-4.1-6.6-9.7-2.3-5.5-2.3-12.1v-1.8q0-1 .2-1.9zm22.5-51.3l-5.4 51.4q-.2.4-.2 1v.9q0 6.6 4.4 11 4.4 4.3 11.2 4.3h17.1q3.6 0 6.8-1.4 3.3-1.3 5.8-3.7 2.5-2.4 4.2-5.5 1.6-3 2.1-6.6l5.4-51.4v-1.9q0-3.3-1.2-6-1.2-2.9-3.3-4.9-2.1-2-4.9-3.2-2.8-1.2-5.9-1.2h-17.1q-3.4 0-6.8 1.4-3.3 1.3-5.9 3.6-2.6 2.4-4.3 5.5-1.8 3.1-2 6.8zm67.5 51.4l5.4-51.4q.7-7 4-13.2 3.4-6.3 8.6-11 5.2-4.7 11.7-7.4 6.5-2.7 13.6-2.7h17.1q6.6 0 12.2 2.4t9.9 6.5q4.1 4.1 6.5 9.8 2.3 5.6 2.3 12v1.8l-.3 1.9-5.4 51.3q-.8 7-4 13.2-3.4 6.3-8.5 10.9-5.2 4.7-11.7 7.4-6.5 2.8-13.6 2.8h-17.1q-6.6 0-12.2-2.3-5.6-2.4-9.8-6.6-4.3-4.1-6.6-9.7-2.3-5.5-2.3-12.1v-1.8q0-1 .2-1.9zm22.5-51.4l-5.4 51.4q-.2.4-.2 1v.9q0 6.6 4.4 11 4.4 4.3 11.2 4.3h17.1q3.6 0 6.8-1.4 3.3-1.3 5.8-3.7 2.5-2.4 4.2-5.5 1.7-3 2.1-6.6l5.4-51.4v-1.9q0-3.3-1.2-6-1.2-2.9-3.3-4.9-2.1-2-4.9-3.2-2.8-1.2-5.9-1.2h-17.1q-3.4 0-6.8 1.4-3.3 1.3-5.9 3.6-2.6 2.4-4.3 5.5-1.8 3.1-2 6.8zm143 17.2l-1.8 17h-51.4l-5.4 51.5h-17.1l12.6-120H686l-1.9 17.1h-68.5l-3.6 34.4h51.5z"/><path class="train" d="M686.3 700h-13.1l8.3-78.9H655l1.4-13.1h65.7l-1.4 13.1h-26.2l-8.3 78.9zm99 0h-14l-10.2-39.4h-24.3l-4 39.4h-13.2l9.7-92h39.4q5 0 9.4 1.8 4.3 1.9 7.5 5 3.2 3.2 5 7.5 1.8 4.3 1.8 9.3 0 4.1-1.3 8-1.4 4-3.8 7.6-2.4 3.5-5.7 6.3-3.2 2.8-7.1 4.6l10.8 41.9zm-20.7-52.6q2.8 0 5.5-1.2 2.6-1.2 4.6-3.2 2-2 3.2-4.6 1.1-2.7 1.1-5.6 0-2.5-.9-4.6-.9-2.1-2.5-3.7-1.6-1.5-3.7-2.5-2.2-.9-4.6-.9H741l-2.8 26.3h26.4zM855 700l-6.8-26.3h-31.6l.2-1.8-13 28.1h-14.1l43.1-92h12.4l23.8 92h-14zm-18.3-70.5l-14.6 31H845l-8-31zm47.5 70.5H871l9.6-92h13.1l-9.6 92zm32.7-92l31 65.7 7-65.7H968l-9.8 92h-13l-31.1-65.7-7 65.7h-13l9.6-92H917z"/><path class="top" d="M694.6 596l209.2-60 64.3 60H940l-45.8-44-199.6 44z"/></svg>
