<svg xmlns="http://www.w3.org/2000/svg" viewBox="-2 0 65 65">
  <path fill="#710" d="M62 35.4L48 21.6v-9.1c0-1.1-.9-2-2-2s-2 .9-2 2v5l-9.8-9.7a2 2 0 0 0-3 0L18.7 20.5a2 2 0 1 0 3 3L32.7 12 59 38.3a2 2 0 1 0 3-2.9z"/>
  <path fill="#710" d="M56 37.8L34.4 16a2 2 0 0 0-3 0L23 24.4c5.5 2.7 9.5 8.2 10.2 14.6 1.7.4 3 1.8 3 3.6v7.8a5 5 0 0 0 5 5h10.6a5 5 0 0 0 5-5V39.8l-.2-1a2 2 0 0 0-.5-1z"/>
  <path fill="#710" d="M15.6 24.3a15.6 15.6 0 1 0 0 31.1 15.6 15.6 0 0 0 0-31.1zm5 18.1h-2.5V45a2.6 2.6 0 1 1-5.1 0v-2.5h-2.5a2.6 2.6 0 1 1 0-5.1H13v-2.6a2.6 2.6 0 1 1 5.1 0v2.6h2.6a2.6 2.6 0 1 1 0 5.1z"/>
</svg>
